<?xml version="1.0" standalone="no"?>
<!DOCTYPE svg PUBLIC "-//W3C//DTD SVG 20010904//EN"
 "http://www.w3.org/TR/2001/REC-SVG-20010904/DTD/svg10.dtd">
<svg version="1.0" xmlns="http://www.w3.org/2000/svg"
 width="656.000000pt" height="656.000000pt" viewBox="0 0 656.000000 656.000000"
 preserveAspectRatio="xMidYMid meet">
<metadata>
Created by potrace 1.14, written by Peter Selinger 2001-2017
</metadata>
<g transform="translate(0.000000,656.000000) scale(0.100000,-0.100000)"
fill="#000000" stroke="none">
<path d="M3108 6555 c-2 -2 -23 -6 -48 -10 -96 -13 -397 -102 -580 -172 -8 -3
-19 -7 -25 -9 -10 -2 -149 -51 -175 -61 -8 -3 -19 -7 -25 -9 -10 -3 -185 -65
-420 -149 -71 -25 -150 -53 -175 -62 -25 -8 -59 -21 -77 -29 -17 -8 -35 -14
-40 -14 -4 0 -42 -13 -83 -29 -41 -16 -130 -50 -196 -75 -303 -113 -427 -176
-519 -263 -94 -89 -135 -164 -166 -302 -18 -83 -19 -139 -15 -1456 1 -753 5
-1381 8 -1395 4 -14 9 -50 13 -80 10 -76 13 -95 15 -95 2 0 5 -12 13 -55 3
-14 10 -38 17 -55 6 -16 11 -32 11 -35 0 -7 25 -90 39 -125 6 -16 12 -32 12
-35 1 -9 92 -184 108 -210 70 -107 105 -156 114 -165 6 -5 24 -28 41 -50 29
-38 220 -233 281 -285 16 -15 63 -53 104 -85 41 -33 77 -62 80 -65 34 -35 383
-268 575 -384 88 -53 167 -101 175 -106 8 -5 69 -40 135 -77 66 -37 129 -73
140 -80 11 -7 26 -15 34 -19 8 -4 60 -33 115 -64 110 -62 200 -111 371 -201
109 -57 223 -96 251 -85 8 3 14 2 14 -3 0 -11 91 6 143 27 16 7 31 12 34 12 5
0 115 54 163 80 14 7 32 17 40 21 8 5 42 22 75 38 162 81 460 243 645 349 391
226 724 453 911 622 226 204 365 376 471 580 46 89 101 224 113 275 4 17 13
49 21 71 11 37 24 100 51 264 4 25 8 662 9 1415 3 1409 3 1418 -34 1530 -41
123 -112 214 -227 291 -61 40 -246 134 -265 134 -6 0 -18 4 -28 9 -9 5 -55 24
-102 41 -47 18 -94 36 -105 41 -11 5 -60 22 -110 39 -49 17 -99 35 -110 40
-11 5 -60 23 -110 40 -49 17 -97 34 -105 37 -31 12 -268 96 -350 124 -47 16
-94 33 -105 38 -11 5 -67 25 -125 45 -58 19 -203 69 -322 110 -120 41 -218 73
-218 70 0 -2 -12 1 -27 7 -30 12 -41 14 -151 33 -63 12 -295 19 -304 11z"/>
</g>
</svg>
