<svg width="0" height="0" class="hidden">
    <symbol xmlns="http://www.w3.org/2000/svg" viewBox="0 0 112 41" fill="none" id="logo">
        <path d="M16.7315 40.0082C17.1095 40.0082 17.6267 39.8491 18.144 39.5905C29.6034 33.7812 33.4431 30.5981 33.4431 23.4757V8.81335C33.4431 6.28673 32.5279 5.33178 30.3793 4.41662C28.3102 3.56115 21.0685 1.03452 19.0791 0.377999C18.343 0.159158 17.4676 0 16.7315 0C15.9755 0 15.12 0.159158 14.3839 0.377999C12.3745 1.01463 5.15274 3.56115 3.08369 4.41662C0.915158 5.31189 0 6.28673 0 8.81335V23.4757C0 30.5981 3.99884 33.5226 15.2991 39.5905C15.8163 39.869 16.3535 40.0082 16.7315 40.0082Z" fill="#96CEB4"/>
        <path d="M14.3839 0.377999C15.12 0.159158 15.9755 0 16.7315 0V40.0082C16.3535 40.0082 15.8163 39.869 15.2991 39.5905C3.99884 33.5226 0 30.5981 0 23.4757V8.81335C0 6.28673 0.915158 5.31189 3.08368 4.41662C5.15274 3.56115 12.3745 1.01463 14.3839 0.377999Z" fill="#96CEB4"/>
        <path d="M14.3839 0.377999C15.12 0.159158 15.9755 0 16.7315 0V40.0082C16.3535 40.0082 15.8163 39.869 15.2991 39.5905C3.99884 33.5226 0 30.5981 0 23.4757V8.81335C0 6.28673 0.915158 5.31189 3.08368 4.41662C5.15274 3.56115 12.3745 1.01463 14.3839 0.377999Z" fill="black" fill-opacity="0.2"/>
        <path d="M16.7315 40.0082C17.1095 40.0082 17.6267 39.8491 18.144 39.5905C29.6034 33.7812 33.4431 30.5981 33.4431 23.4757V8.81335C33.4431 6.28673 32.5279 5.33178 30.3793 4.41662C28.3102 3.56115 21.0685 1.03452 19.0791 0.377999C18.343 0.159158 17.4676 0 16.7315 0C15.9755 0 15.12 0.159158 14.3839 0.377999C12.3745 1.01463 5.15274 3.56115 3.08369 4.41662C0.915158 5.31189 0 6.28673 0 8.81335V23.4757C0 30.5981 3.99884 33.5226 15.2991 39.5905C15.8163 39.869 16.3535 40.0082 16.7315 40.0082Z" fill="url(#paint0_radial_6_15)"/>
        <path d="M44.7985 13.7728C44.7357 13.4501 44.6954 13.1364 44.6775 12.8317C44.6595 12.518 44.6506 12.2401 44.6506 11.9981C44.6506 11.7472 44.6595 11.4648 44.6775 11.1511C44.6954 10.8375 44.7357 10.5193 44.7985 10.1966H58.1081C58.1798 10.4207 58.2336 10.6851 58.2695 10.9898C58.3053 11.2856 58.3232 11.5724 58.3232 11.8502C58.3232 12.5493 58.1395 13.0468 57.772 13.3425C57.4135 13.6293 56.8489 13.7728 56.0781 13.7728H55.2849C55.0877 13.7728 54.8054 13.7683 54.4379 13.7593C54.0794 13.7503 53.797 13.7459 53.5909 13.7459H49.2753C49.0782 13.7459 48.7958 13.7503 48.4284 13.7593C48.0609 13.7683 47.7786 13.7728 47.5814 13.7728H44.7985ZM49.2753 15.7356C49.2753 15.3681 49.2798 15.041 49.2888 14.7542C49.2977 14.4584 49.3022 14.1223 49.3022 13.7459V11.9712H53.564V13.7459C53.564 14.1223 53.5685 14.4584 53.5775 14.7542C53.5864 15.041 53.5909 15.3681 53.5909 15.7356V28.5613C53.2234 28.624 52.847 28.6644 52.4616 28.6823C52.0762 28.7092 51.7356 28.7226 51.4398 28.7226C51.1351 28.7226 50.79 28.7092 50.4046 28.6823C50.0192 28.6644 49.6428 28.624 49.2753 28.5613V15.7356ZM56.6249 15.3995C57.0282 15.2382 57.427 15.1172 57.8214 15.0365C58.2157 14.9469 58.5967 14.9021 58.9641 14.9021C59.6363 14.9021 60.1069 15.0589 60.3758 15.3726C60.6536 15.6773 60.8508 16.1165 60.9673 16.6901L61.8008 21.0326C61.9801 21.902 62.128 22.7041 62.2445 23.4391C62.37 24.174 62.4551 24.7745 62.4999 25.2406C62.5268 25.384 62.5985 25.4557 62.715 25.4557L64.1939 15.2919C64.5345 15.2113 64.9602 15.1575 65.4711 15.1306C65.982 15.0948 66.3629 15.0768 66.6138 15.0768C66.8917 15.0768 67.295 15.0948 67.8238 15.1306C68.3616 15.1575 68.7873 15.2113 69.101 15.2919L70.6202 25.2406C70.656 25.384 70.7277 25.4557 70.8353 25.4557C70.9339 24.8462 71.0414 24.1651 71.1579 23.4122C71.2745 22.6593 71.4134 21.8661 71.5747 21.0326L72.7712 15.1575C73.0043 15.0948 73.2642 15.0499 73.551 15.0231C73.8468 14.9962 74.1201 14.9827 74.3711 14.9827C74.6579 14.9827 75.0254 15.0051 75.4735 15.0499C75.9306 15.0858 76.307 15.1799 76.6028 15.3323L76.7238 15.5877L73.5913 28.5613C73.1701 28.624 72.6727 28.6644 72.099 28.6823C71.5254 28.7092 70.9921 28.7226 70.4992 28.7226C69.6925 28.7226 69.0831 28.6106 68.6708 28.3865C68.2585 28.1535 67.9896 27.6292 67.8641 26.8135L67.407 23.9231C67.3443 23.4749 67.2726 22.9775 67.1919 22.4308C67.1113 21.884 67.0306 21.3059 66.9499 20.6965C66.8693 20.087 66.7931 19.4731 66.7214 18.8546H66.5601C66.4973 19.4641 66.4211 20.0691 66.3315 20.6696C66.2508 21.2701 66.1702 21.8437 66.0895 22.3904C66.0089 22.9282 65.9327 23.4211 65.861 23.8693L65.1081 28.5613C64.6689 28.6151 64.1536 28.6554 63.562 28.6823C62.9794 28.7092 62.4372 28.7226 61.9353 28.7226C61.1466 28.7226 60.5416 28.5971 60.1203 28.3462C59.708 28.0863 59.4123 27.5575 59.233 26.7598L56.6249 15.3995ZM83.74 28.5613C83.4442 28.6151 83.1081 28.6554 82.7317 28.6823C82.3642 28.7092 82.0012 28.7226 81.6427 28.7226C81.2931 28.7226 80.9301 28.7092 80.5537 28.6823C80.1862 28.6554 79.8457 28.6151 79.532 28.5613V19.6613C79.532 19.2131 79.4378 18.8412 79.2496 18.5454C79.0704 18.2496 78.7432 18.1018 78.2682 18.1018H77.8649C77.7484 17.6447 77.6901 17.1696 77.6901 16.6767C77.6901 16.4437 77.7036 16.1972 77.7304 15.9373C77.7573 15.6684 77.8021 15.4129 77.8649 15.1709C78.2772 15.1261 78.6984 15.0948 79.1286 15.0768C79.5678 15.0499 79.9353 15.0365 80.231 15.0365H80.8091C81.7144 15.0365 82.4269 15.3278 82.9468 15.9104C83.4756 16.484 83.74 17.2637 83.74 18.2496V28.5613ZM78.7253 11.3663C78.7253 11.1153 78.7522 10.8554 78.806 10.5865C78.8597 10.3087 78.9359 10.0443 79.0345 9.79329C79.2676 9.67678 79.5678 9.57819 79.9353 9.49752C80.3117 9.41686 80.6792 9.37653 81.0377 9.37653C81.4052 9.37653 81.7771 9.41686 82.1536 9.49752C82.539 9.57819 82.8347 9.67678 83.0409 9.79329C83.1395 10.0443 83.2156 10.3131 83.2694 10.5999C83.3232 10.8778 83.3501 11.1332 83.3501 11.3663C83.3501 11.6082 83.3232 11.8682 83.2694 12.146C83.2156 12.4239 83.1395 12.6838 83.0409 12.9258C82.8347 13.0423 82.539 13.1409 82.1536 13.2215C81.7771 13.3022 81.4052 13.3425 81.0377 13.3425C80.6792 13.3425 80.3072 13.3067 79.9218 13.235C79.5364 13.1543 79.2407 13.0513 79.0345 12.9258C78.9359 12.6838 78.8597 12.4239 78.806 12.146C78.7522 11.8682 78.7253 11.6082 78.7253 11.3663ZM88.6834 14.9558C89.49 14.9558 90.095 15.2337 90.4984 15.7894C90.9106 16.3361 91.1168 17.0755 91.1168 18.0076V28.5613C90.821 28.6151 90.4849 28.6554 90.1085 28.6823C89.741 28.7092 89.378 28.7226 89.0195 28.7226C88.67 28.7226 88.307 28.7092 87.9305 28.6823C87.5631 28.6554 87.2225 28.6151 86.9088 28.5613V15.1441L87.097 14.9558H88.6834ZM98.4707 25.2003C98.4707 25.7201 98.52 26.213 98.6186 26.6791C98.7172 27.1362 98.892 27.535 99.1429 27.8756C98.8382 28.1266 98.4573 28.3417 98.0002 28.5209C97.5431 28.6912 97.0501 28.7764 96.5213 28.7764C95.6788 28.7764 95.0918 28.5523 94.7601 28.1042C94.4285 27.656 94.2627 27.0107 94.2627 26.1682V20.4545C94.2627 19.845 94.182 19.3969 94.0207 19.1101C93.8683 18.8143 93.5681 18.6664 93.12 18.6664C92.8421 18.6664 92.5195 18.7426 92.152 18.895C91.7935 19.0384 91.4305 19.2804 91.063 19.6209C90.7045 19.9615 90.3863 20.4141 90.1085 20.9788V17.2951C90.7448 16.6856 91.4305 16.1344 92.1654 15.6415C92.9093 15.1485 93.7563 14.9021 94.7064 14.9021C95.5309 14.9021 96.2211 15.1082 96.7768 15.5205C97.3324 15.9238 97.7537 16.484 98.0405 17.201C98.3273 17.918 98.4707 18.7471 98.4707 19.6882V25.2003ZM100.538 27.6336C100.556 27.1855 100.677 26.6836 100.901 26.1279C101.134 25.5722 101.403 25.133 101.707 24.8104C102.299 25.1151 102.908 25.3795 103.536 25.6036C104.172 25.8187 104.804 25.9262 105.431 25.9262C105.951 25.9262 106.341 25.8366 106.601 25.6574C106.87 25.4781 107.004 25.254 107.004 24.9851C107.004 24.7252 106.91 24.4967 106.722 24.2995C106.534 24.0934 106.22 23.9141 105.781 23.7617L104.289 23.224C103.661 22.9909 103.092 22.6996 102.581 22.3501C102.07 21.9916 101.667 21.5569 101.371 21.046C101.076 20.5262 100.928 19.9078 100.928 19.1907C100.928 18.2765 101.143 17.4878 101.573 16.8246C102.003 16.1613 102.608 15.6504 103.388 15.2919C104.168 14.9245 105.082 14.7407 106.131 14.7407C106.982 14.7407 107.874 14.8572 108.806 15.0903C109.738 15.3233 110.495 15.5832 111.078 15.87C111.096 16.1927 111.056 16.5512 110.957 16.9456C110.858 17.3399 110.715 17.7029 110.527 18.0345C110.347 18.3662 110.146 18.6171 109.922 18.7874C109.366 18.5365 108.761 18.3079 108.107 18.1018C107.453 17.8867 106.807 17.7791 106.171 17.7791C105.812 17.7791 105.539 17.8642 105.351 18.0345C105.163 18.2048 105.068 18.4065 105.068 18.6395C105.068 18.8726 105.149 19.0697 105.31 19.2311C105.472 19.3924 105.732 19.5358 106.09 19.6613L107.757 20.2528C108.779 20.6113 109.63 21.1356 110.312 21.8258C110.993 22.5159 111.333 23.4346 111.333 24.5818C111.333 25.9173 110.818 26.9838 109.787 27.7815C108.766 28.5702 107.345 28.9646 105.526 28.9646C104.567 28.9646 103.652 28.8302 102.783 28.5613C101.922 28.3014 101.174 27.9921 100.538 27.6336Z" fill="#8BB2A0"/>
        <path d="M44.7985 13.7728C44.7357 13.4501 44.6954 13.1364 44.6775 12.8317C44.6595 12.518 44.6506 12.2401 44.6506 11.9981C44.6506 11.7472 44.6595 11.4648 44.6775 11.1511C44.6954 10.8375 44.7357 10.5193 44.7985 10.1966H58.1081C58.1798 10.4207 58.2336 10.6851 58.2695 10.9898C58.3053 11.2856 58.3232 11.5724 58.3232 11.8502C58.3232 12.5493 58.1395 13.0468 57.772 13.3425C57.4135 13.6293 56.8489 13.7728 56.0781 13.7728H55.2849C55.0877 13.7728 54.8054 13.7683 54.4379 13.7593C54.0794 13.7503 53.797 13.7459 53.5909 13.7459H49.2753C49.0782 13.7459 48.7958 13.7503 48.4284 13.7593C48.0609 13.7683 47.7786 13.7728 47.5814 13.7728H44.7985ZM49.2753 15.7356C49.2753 15.3681 49.2798 15.041 49.2888 14.7542C49.2977 14.4584 49.3022 14.1223 49.3022 13.7459V11.9712H53.564V13.7459C53.564 14.1223 53.5685 14.4584 53.5775 14.7542C53.5864 15.041 53.5909 15.3681 53.5909 15.7356V28.5613C53.2234 28.624 52.847 28.6644 52.4616 28.6823C52.0762 28.7092 51.7356 28.7226 51.4398 28.7226C51.1351 28.7226 50.79 28.7092 50.4046 28.6823C50.0192 28.6644 49.6428 28.624 49.2753 28.5613V15.7356ZM56.6249 15.3995C57.0282 15.2382 57.427 15.1172 57.8214 15.0365C58.2157 14.9469 58.5967 14.9021 58.9641 14.9021C59.6363 14.9021 60.1069 15.0589 60.3758 15.3726C60.6536 15.6773 60.8508 16.1165 60.9673 16.6901L61.8008 21.0326C61.9801 21.902 62.128 22.7041 62.2445 23.4391C62.37 24.174 62.4551 24.7745 62.4999 25.2406C62.5268 25.384 62.5985 25.4557 62.715 25.4557L64.1939 15.2919C64.5345 15.2113 64.9602 15.1575 65.4711 15.1306C65.982 15.0948 66.3629 15.0768 66.6138 15.0768C66.8917 15.0768 67.295 15.0948 67.8238 15.1306C68.3616 15.1575 68.7873 15.2113 69.101 15.2919L70.6202 25.2406C70.656 25.384 70.7277 25.4557 70.8353 25.4557C70.9339 24.8462 71.0414 24.1651 71.1579 23.4122C71.2745 22.6593 71.4134 21.8661 71.5747 21.0326L72.7712 15.1575C73.0043 15.0948 73.2642 15.0499 73.551 15.0231C73.8468 14.9962 74.1201 14.9827 74.3711 14.9827C74.6579 14.9827 75.0254 15.0051 75.4735 15.0499C75.9306 15.0858 76.307 15.1799 76.6028 15.3323L76.7238 15.5877L73.5913 28.5613C73.1701 28.624 72.6727 28.6644 72.099 28.6823C71.5254 28.7092 70.9921 28.7226 70.4992 28.7226C69.6925 28.7226 69.0831 28.6106 68.6708 28.3865C68.2585 28.1535 67.9896 27.6292 67.8641 26.8135L67.407 23.9231C67.3443 23.4749 67.2726 22.9775 67.1919 22.4308C67.1113 21.884 67.0306 21.3059 66.9499 20.6965C66.8693 20.087 66.7931 19.4731 66.7214 18.8546H66.5601C66.4973 19.4641 66.4211 20.0691 66.3315 20.6696C66.2508 21.2701 66.1702 21.8437 66.0895 22.3904C66.0089 22.9282 65.9327 23.4211 65.861 23.8693L65.1081 28.5613C64.6689 28.6151 64.1536 28.6554 63.562 28.6823C62.9794 28.7092 62.4372 28.7226 61.9353 28.7226C61.1466 28.7226 60.5416 28.5971 60.1203 28.3462C59.708 28.0863 59.4123 27.5575 59.233 26.7598L56.6249 15.3995ZM83.74 28.5613C83.4442 28.6151 83.1081 28.6554 82.7317 28.6823C82.3642 28.7092 82.0012 28.7226 81.6427 28.7226C81.2931 28.7226 80.9301 28.7092 80.5537 28.6823C80.1862 28.6554 79.8457 28.6151 79.532 28.5613V19.6613C79.532 19.2131 79.4378 18.8412 79.2496 18.5454C79.0704 18.2496 78.7432 18.1018 78.2682 18.1018H77.8649C77.7484 17.6447 77.6901 17.1696 77.6901 16.6767C77.6901 16.4437 77.7036 16.1972 77.7304 15.9373C77.7573 15.6684 77.8021 15.4129 77.8649 15.1709C78.2772 15.1261 78.6984 15.0948 79.1286 15.0768C79.5678 15.0499 79.9353 15.0365 80.231 15.0365H80.8091C81.7144 15.0365 82.4269 15.3278 82.9468 15.9104C83.4756 16.484 83.74 17.2637 83.74 18.2496V28.5613ZM78.7253 11.3663C78.7253 11.1153 78.7522 10.8554 78.806 10.5865C78.8597 10.3087 78.9359 10.0443 79.0345 9.79329C79.2676 9.67678 79.5678 9.57819 79.9353 9.49752C80.3117 9.41686 80.6792 9.37653 81.0377 9.37653C81.4052 9.37653 81.7771 9.41686 82.1536 9.49752C82.539 9.57819 82.8347 9.67678 83.0409 9.79329C83.1395 10.0443 83.2156 10.3131 83.2694 10.5999C83.3232 10.8778 83.3501 11.1332 83.3501 11.3663C83.3501 11.6082 83.3232 11.8682 83.2694 12.146C83.2156 12.4239 83.1395 12.6838 83.0409 12.9258C82.8347 13.0423 82.539 13.1409 82.1536 13.2215C81.7771 13.3022 81.4052 13.3425 81.0377 13.3425C80.6792 13.3425 80.3072 13.3067 79.9218 13.235C79.5364 13.1543 79.2407 13.0513 79.0345 12.9258C78.9359 12.6838 78.8597 12.4239 78.806 12.146C78.7522 11.8682 78.7253 11.6082 78.7253 11.3663ZM88.6834 14.9558C89.49 14.9558 90.095 15.2337 90.4984 15.7894C90.9106 16.3361 91.1168 17.0755 91.1168 18.0076V28.5613C90.821 28.6151 90.4849 28.6554 90.1085 28.6823C89.741 28.7092 89.378 28.7226 89.0195 28.7226C88.67 28.7226 88.307 28.7092 87.9305 28.6823C87.5631 28.6554 87.2225 28.6151 86.9088 28.5613V15.1441L87.097 14.9558H88.6834ZM98.4707 25.2003C98.4707 25.7201 98.52 26.213 98.6186 26.6791C98.7172 27.1362 98.892 27.535 99.1429 27.8756C98.8382 28.1266 98.4573 28.3417 98.0002 28.5209C97.5431 28.6912 97.0501 28.7764 96.5213 28.7764C95.6788 28.7764 95.0918 28.5523 94.7601 28.1042C94.4285 27.656 94.2627 27.0107 94.2627 26.1682V20.4545C94.2627 19.845 94.182 19.3969 94.0207 19.1101C93.8683 18.8143 93.5681 18.6664 93.12 18.6664C92.8421 18.6664 92.5195 18.7426 92.152 18.895C91.7935 19.0384 91.4305 19.2804 91.063 19.6209C90.7045 19.9615 90.3863 20.4141 90.1085 20.9788V17.2951C90.7448 16.6856 91.4305 16.1344 92.1654 15.6415C92.9093 15.1485 93.7563 14.9021 94.7064 14.9021C95.5309 14.9021 96.2211 15.1082 96.7768 15.5205C97.3324 15.9238 97.7537 16.484 98.0405 17.201C98.3273 17.918 98.4707 18.7471 98.4707 19.6882V25.2003ZM100.538 27.6336C100.556 27.1855 100.677 26.6836 100.901 26.1279C101.134 25.5722 101.403 25.133 101.707 24.8104C102.299 25.1151 102.908 25.3795 103.536 25.6036C104.172 25.8187 104.804 25.9262 105.431 25.9262C105.951 25.9262 106.341 25.8366 106.601 25.6574C106.87 25.4781 107.004 25.254 107.004 24.9851C107.004 24.7252 106.91 24.4967 106.722 24.2995C106.534 24.0934 106.22 23.9141 105.781 23.7617L104.289 23.224C103.661 22.9909 103.092 22.6996 102.581 22.3501C102.07 21.9916 101.667 21.5569 101.371 21.046C101.076 20.5262 100.928 19.9078 100.928 19.1907C100.928 18.2765 101.143 17.4878 101.573 16.8246C102.003 16.1613 102.608 15.6504 103.388 15.2919C104.168 14.9245 105.082 14.7407 106.131 14.7407C106.982 14.7407 107.874 14.8572 108.806 15.0903C109.738 15.3233 110.495 15.5832 111.078 15.87C111.096 16.1927 111.056 16.5512 110.957 16.9456C110.858 17.3399 110.715 17.7029 110.527 18.0345C110.347 18.3662 110.146 18.6171 109.922 18.7874C109.366 18.5365 108.761 18.3079 108.107 18.1018C107.453 17.8867 106.807 17.7791 106.171 17.7791C105.812 17.7791 105.539 17.8642 105.351 18.0345C105.163 18.2048 105.068 18.4065 105.068 18.6395C105.068 18.8726 105.149 19.0697 105.31 19.2311C105.472 19.3924 105.732 19.5358 106.09 19.6613L107.757 20.2528C108.779 20.6113 109.63 21.1356 110.312 21.8258C110.993 22.5159 111.333 23.4346 111.333 24.5818C111.333 25.9173 110.818 26.9838 109.787 27.7815C108.766 28.5702 107.345 28.9646 105.526 28.9646C104.567 28.9646 103.652 28.8302 102.783 28.5613C101.922 28.3014 101.174 27.9921 100.538 27.6336Z" fill="url(#paint1_radial_6_15)" fill-opacity="0.2"/>
        <defs>
            <radialGradient id="paint0_radial_6_15" cx="0" cy="0" r="1" gradientUnits="userSpaceOnUse" gradientTransform="translate(-4.66864 1.02921) rotate(43.0054) scale(60.3588 50.4541)">
                <stop stop-color="white" stop-opacity="0.5"/>
                <stop offset="1" stop-color="white" stop-opacity="0"/>
            </radialGradient>
            <radialGradient id="paint1_radial_6_15" cx="0" cy="0" r="1" gradientUnits="userSpaceOnUse" gradientTransform="translate(63.5075 9.41382) rotate(38.7902) scale(38.2581 78.4615)">
                <stop stop-color="white"/>
                <stop offset="1" stop-color="white" stop-opacity="0"/>
            </radialGradient>
        </defs>
    </symbol>
    <symbol xmlns="http://www.w3.org/2000/svg" viewBox="0 0 24 24" fill="none" stroke="currentcolor" stroke-width="1.5" stroke-linecap="round" stroke-linejoin="round" id="icon-sun">
        <circle cx="12" cy="12" r="5"></circle>
        <line x1="12" y1="1" x2="12" y2="3"></line>
        <line x1="12" y1="21" x2="12" y2="23"></line>
        <line x1="4.22" y1="4.22" x2="5.64" y2="5.64"></line>
        <line x1="18.36" y1="18.36" x2="19.78" y2="19.78"></line>
        <line x1="1" y1="12" x2="3" y2="12"></line>
        <line x1="21" y1="12" x2="23" y2="12"></line>
        <line x1="4.22" y1="19.78" x2="5.64" y2="18.36"></line>
        <line x1="18.36" y1="5.64" x2="19.78" y2="4.22"></line>
    </symbol>
    <symbol xmlns="http://www.w3.org/2000/svg" viewBox="0 0 24 24" fill="none" stroke="currentcolor" stroke-width="1.5" stroke-linecap="round" stroke-linejoin="round" id="icon-moon">
        <path d="M21 12.79A9 9 0 1 1 11.21 3 7 7 0 0 0 21 12.79z"></path>
    </symbol>
    <symbol xmlns="http://www.w3.org/2000/svg" viewBox="0 0 24 24" fill="none" stroke="currentcolor" stroke-width="1.5" stroke-linecap="round" stroke-linejoin="round" id="icon-loader">
        <line x1="12" y1="2" x2="12" y2="6"></line>
        <line x1="12" y1="18" x2="12" y2="22"></line>
        <line x1="4.93" y1="4.93" x2="7.76" y2="7.76"></line>
        <line x1="16.24" y1="16.24" x2="19.07" y2="19.07"></line>
        <line x1="2" y1="12" x2="6" y2="12"></line>
        <line x1="18" y1="12" x2="22" y2="12"></line>
        <line x1="4.93" y1="19.07" x2="7.76" y2="16.24"></line>
        <line x1="16.24" y1="7.76" x2="19.07" y2="4.93"></line>
    </symbol>
    <symbol xmlns="http://www.w3.org/2000/svg" viewBox="0 0 24 24" fill="none" id="icon-shield-check">
        <path fill-rule="evenodd" clip-rule="evenodd" d="M12 0C10.965 0 9.23551 0.3975 7.60801 0.84C5.94301 1.29 4.26451 1.8225 3.27751 2.145C2.86484 2.28128 2.49899 2.5312 2.22198 2.86605C1.94497 3.20091 1.76804 3.60711 1.71151 4.038C0.817508 10.7535 2.89201 15.7305 5.40901 19.023C6.47638 20.4314 7.74905 21.6717 9.18451 22.7025C9.76351 23.112 10.3005 23.4255 10.7565 23.64C11.1765 23.838 11.628 24 12 24C12.372 24 12.822 23.838 13.2435 23.64C13.7932 23.3728 14.3191 23.0592 14.8155 22.7025C16.251 21.6718 17.5237 20.4315 18.591 19.023C21.108 15.7305 23.1825 10.7535 22.2885 4.038C22.2321 3.6069 22.0552 3.20046 21.7782 2.86535C21.5012 2.53024 21.1353 2.28004 20.7225 2.1435C19.2897 1.67372 17.8458 1.23859 16.392 0.8385C14.7645 0.399 13.035 0 12 0ZM15.219 7.719C15.3598 7.57817 15.5508 7.49905 15.75 7.49905C15.9492 7.49905 16.1402 7.57817 16.281 7.719C16.4218 7.85983 16.501 8.05084 16.501 8.25C16.501 8.44916 16.4218 8.64017 16.281 8.781L11.781 13.281C11.7113 13.3508 11.6286 13.4063 11.5375 13.4441C11.4463 13.4819 11.3487 13.5013 11.25 13.5013C11.1514 13.5013 11.0537 13.4819 10.9626 13.4441C10.8714 13.4063 10.7887 13.3508 10.719 13.281L8.46901 11.031C8.39927 10.9613 8.34396 10.8785 8.30622 10.7874C8.26848 10.6963 8.24906 10.5986 8.24906 10.5C8.24906 10.4014 8.26848 10.3037 8.30622 10.2126C8.34396 10.1215 8.39927 10.0387 8.46901 9.969C8.53874 9.89927 8.62152 9.84395 8.71263 9.80621C8.80374 9.76848 8.90139 9.74905 9.00001 9.74905C9.09862 9.74905 9.19627 9.76848 9.28738 9.80621C9.37849 9.84395 9.46127 9.89927 9.53101 9.969L11.25 11.6895L15.219 7.719V7.719Z" fill="currentcolor"/>
    </symbol>
    <svg xmlns="http://www.w3.org/2000/svg" viewBox="0 0 24 24" fill="none" stroke="currentcolor" stroke-width="1.5" stroke-linecap="round" stroke-linejoin="round" id="icon-chevron-right">
        <polyline points="9 18 15 12 9 6"></polyline>
    </svg>
</svg>