<svg width="34" height="41" viewBox="0 0 34 41" fill="none" xmlns="http://www.w3.org/2000/svg">
<path d="M16.7315 40.0082C17.1095 40.0082 17.6267 39.8491 18.144 39.5905C29.6034 33.7812 33.4431 30.5981 33.4431 23.4757V8.81335C33.4431 6.28673 32.5279 5.33178 30.3793 4.41662C28.3102 3.56115 21.0685 1.03452 19.0791 0.377999C18.343 0.159158 17.4676 0 16.7315 0C15.9755 0 15.12 0.159158 14.3839 0.377999C12.3745 1.01463 5.15274 3.56115 3.08369 4.41662C0.915158 5.31189 0 6.28673 0 8.81335V23.4757C0 30.5981 3.99884 33.5226 15.2991 39.5905C15.8163 39.869 16.3535 40.0082 16.7315 40.0082Z" fill="#96CEB4"/>
<path d="M14.3839 0.377999C15.12 0.159158 15.9755 0 16.7315 0V40.0082C16.3535 40.0082 15.8163 39.869 15.2991 39.5905C3.99884 33.5226 0 30.5981 0 23.4757V8.81335C0 6.28673 0.915158 5.31189 3.08368 4.41662C5.15274 3.56115 12.3745 1.01463 14.3839 0.377999Z" fill="#96CEB4"/>
<path d="M14.3839 0.377999C15.12 0.159158 15.9755 0 16.7315 0V40.0082C16.3535 40.0082 15.8163 39.869 15.2991 39.5905C3.99884 33.5226 0 30.5981 0 23.4757V8.81335C0 6.28673 0.915158 5.31189 3.08368 4.41662C5.15274 3.56115 12.3745 1.01463 14.3839 0.377999Z" fill="black" fill-opacity="0.2"/>
<path d="M16.7315 40.0082C17.1095 40.0082 17.6267 39.8491 18.144 39.5905C29.6034 33.7812 33.4431 30.5981 33.4431 23.4757V8.81335C33.4431 6.28673 32.5279 5.33178 30.3793 4.41662C28.3102 3.56115 21.0685 1.03452 19.0791 0.377999C18.343 0.159158 17.4676 0 16.7315 0C15.9755 0 15.12 0.159158 14.3839 0.377999C12.3745 1.01463 5.15274 3.56115 3.08369 4.41662C0.915158 5.31189 0 6.28673 0 8.81335V23.4757C0 30.5981 3.99884 33.5226 15.2991 39.5905C15.8163 39.869 16.3535 40.0082 16.7315 40.0082Z" fill="url(#paint0_radial_6_16)"/>
<defs>
<radialGradient id="paint0_radial_6_16" cx="0" cy="0" r="1" gradientUnits="userSpaceOnUse" gradientTransform="translate(-4.66864 1.02921) rotate(43.0054) scale(60.3588 50.4541)">
<stop stop-color="white" stop-opacity="0.5"/>
<stop offset="1" stop-color="white" stop-opacity="0"/>
</radialGradient>
</defs>
</svg>
